<?xml version="1.0" encoding="utf-8"?>
<!-- Generator: Adobe Illustrator 16.0.0, SVG Export Plug-In . SVG Version: 6.00 Build 0)  -->
<!DOCTYPE svg PUBLIC "-//W3C//DTD SVG 1.1//EN" "http://www.w3.org/Graphics/SVG/1.1/DTD/svg11.dtd">
<svg version="1.1" id="Layer_1" xmlns="http://www.w3.org/2000/svg" xmlns:xlink="http://www.w3.org/1999/xlink" x="0px" y="0px"
	 width="532px" height="382px" viewBox="0 0 532 382" enable-background="new 0 0 532 382" xml:space="preserve">
<g>
	<defs>
		<rect id="SVGID_1_" x="-220" y="-497.181" width="894" height="1264.361"/>
	</defs>
	<clipPath id="SVGID_2_">
		<use xlink:href="#SVGID_1_"  overflow="visible"/>
	</clipPath>
	<path clip-path="url(#SVGID_2_)" fill="#C9252C" d="M417.646,180.707l-21.943-11.392c-9.02-4.278-20.246-9.6-20.246-22.045
		c0-12.934,10.005-23.068,22.775-23.068c9.388,0,17.043,4.024,22.756,11.961l0.204,0.283l2.225-1.83l-0.16-0.247
		c-5.24-8.093-14.659-13.12-24.581-13.12c-15.671,0-26.611,10.822-26.611,26.318c0,7.882,3.455,13.868,10.585,18.31l19.992,10.585
		l1.934,0.94c9.555,4.638,21.445,10.407,21.445,23.235c0,15.486-13.127,28.084-29.264,28.084c-12.205,0-22.027-6.799-27.655-19.14
		l-0.136-0.297l-2.892,1.308l0.122,0.296c5.42,13.016,16.735,20.784,30.268,20.784c17.86,0,32.951-13.94,32.951-30.442
		C429.414,192.201,425.794,185.875,417.646,180.707"/>
	<path clip-path="url(#SVGID_2_)" fill="#C9252C" d="M451.877,230.201h-3.396V122.723h17.767c8.292,0,16.277,0.463,22.843,6.052
		c6.043,5.123,9.373,12.741,9.373,21.446c0,8.242-3.318,16.129-8.657,20.583c-6.751,5.869-16.138,6.621-23.559,6.621h-14.37V230.201
		z M451.877,174.47h14.666c6.978,0,14.313-0.79,20.701-6.524c5.118-4.655,7.822-10.889,7.822-18.021
		c0-7.968-3.409-15.236-9.12-19.445c-6.296-4.803-14.218-4.803-20.583-4.803h-13.486V174.47z"/>
	
		<rect x="62.896" y="123.413" transform="matrix(0.4469 0.8946 -0.8946 0.4469 211.0541 -92.2159)" clip-path="url(#SVGID_2_)" fill="#FFFFFF" width="234.421" height="2.338"/>
	
		<rect x="74.16" y="7.372" transform="matrix(0.8941 0.4479 -0.4479 0.8941 63.7759 -20.5452)" clip-path="url(#SVGID_2_)" fill="#FFFFFF" width="2.342" height="234.42"/>
	<rect x="126.549" y="19.773" clip-path="url(#SVGID_2_)" fill="#C9252C" width="2.341" height="209.612"/>
	<rect x="22.913" y="123.411" clip-path="url(#SVGID_2_)" fill="#C9252C" width="209.614" height="2.34"/>
	<polygon clip-path="url(#SVGID_2_)" fill="#C9252C" points="23.988,229.956 21.894,228.907 231.7,18.947 233.354,20.601 	"/>
	<polygon clip-path="url(#SVGID_2_)" fill="#C9252C" points="231.644,230.203 22.085,20.601 23.739,18.947 233.354,228.558 	"/>
	<polygon clip-path="url(#SVGID_2_)" fill="#6CCACD" points="128.767,229.956 126.673,228.907 231.7,18.947 233.354,20.601 	"/>
	<polygon clip-path="url(#SVGID_2_)" fill="#6CCACD" points="126.674,229.956 22.085,20.601 23.74,18.947 128.767,228.907 	"/>
	<path clip-path="url(#SVGID_2_)" fill="#FFFFFF" d="M127.72,230.507c-58.411,0-105.931-47.518-105.931-105.927
		c0-58.409,47.52-105.927,105.931-105.927c58.409,0,105.927,47.518,105.927,105.927C233.647,182.989,186.129,230.507,127.72,230.507
		 M127.72,20.992c-57.121,0-103.591,46.469-103.591,103.588c0,57.118,46.47,103.588,103.591,103.588
		c57.119,0,103.588-46.47,103.588-103.588C231.308,67.461,184.839,20.992,127.72,20.992"/>
	<path clip-path="url(#SVGID_2_)" fill="#6CCACD" d="M75.257,125.582c-29.482,0-53.468-23.984-53.468-53.464
		s23.986-53.464,53.468-53.464c29.48,0,53.465,23.983,53.465,53.464S104.737,125.582,75.257,125.582 M75.257,20.992
		c-28.192,0-51.128,22.934-51.128,51.125c0,28.19,22.936,51.125,51.128,51.125c28.19,0,51.126-22.934,51.126-51.125
		C126.383,43.926,103.447,20.992,75.257,20.992"/>
	<path clip-path="url(#SVGID_2_)" fill="#0B271D" d="M127.721,125.582c-29.482,0-53.468-23.984-53.468-53.464
		s23.985-53.464,53.468-53.464c29.479,0,53.463,23.983,53.463,53.464S157.199,125.582,127.721,125.582 M127.721,20.992
		c-28.192,0-51.128,22.934-51.128,51.125c0,28.19,22.936,51.125,51.128,51.125c28.188,0,51.124-22.934,51.124-51.125
		C178.844,43.926,155.909,20.992,127.721,20.992"/>
	<path clip-path="url(#SVGID_2_)" fill="#C9252C" d="M75.341,230.507c-29.528,0-53.552-24.021-53.552-53.549
		c0-29.526,24.024-53.548,53.552-53.548c29.526,0,53.548,24.022,53.548,53.548C128.89,206.486,104.868,230.507,75.341,230.507
		 M75.341,125.75c-28.24,0-51.212,22.972-51.212,51.208c0,28.238,22.973,51.21,51.212,51.21c28.235,0,51.209-22.972,51.209-51.21
		C126.551,148.722,103.577,125.75,75.341,125.75"/>
	<path clip-path="url(#SVGID_2_)" fill="#C9252C" d="M180.099,125.749c-29.528,0-53.548-24.021-53.548-53.549
		c0-29.526,24.02-53.549,53.548-53.549c29.526,0,53.548,24.023,53.548,53.549C233.647,101.728,209.625,125.749,180.099,125.749
		 M180.099,20.991c-28.238,0-51.209,22.973-51.209,51.209c0,28.237,22.972,51.211,51.209,51.211
		c28.237,0,51.208-22.974,51.208-51.211C231.308,43.964,208.336,20.991,180.099,20.991"/>
	<path clip-path="url(#SVGID_2_)" fill="#0B271D" d="M127.721,230.509c-29.482,0-53.468-23.985-53.468-53.466
		c0-29.482,23.985-53.465,53.468-53.465c29.479,0,53.463,23.983,53.463,53.465C181.184,206.523,157.199,230.509,127.721,230.509
		 M127.721,125.917c-28.192,0-51.128,22.934-51.128,51.125c0,28.19,22.936,51.125,51.128,51.125
		c28.188,0,51.124-22.935,51.124-51.125C178.844,148.852,155.909,125.917,127.721,125.917"/>
	<path clip-path="url(#SVGID_2_)" fill="#6CCACD" d="M180.182,230.509c-29.481,0-53.465-23.985-53.465-53.466
		c0-29.482,23.984-53.465,53.465-53.465c29.479,0,53.465,23.983,53.465,53.465C233.647,206.523,209.662,230.509,180.182,230.509
		 M180.182,125.917c-28.191,0-51.125,22.934-51.125,51.125c0,28.19,22.934,51.125,51.125,51.125
		c28.189,0,51.123-22.935,51.123-51.125C231.305,148.852,208.372,125.917,180.182,125.917"/>
	<path clip-path="url(#SVGID_2_)" fill="#C9252C" d="M417.039,180.159l-21.713-11.271c-8.924-4.233-20.031-9.497-20.031-21.81
		c0-12.8,9.899-22.827,22.535-22.827c9.285,0,16.861,3.981,22.516,11.835l0.199,0.28l2.201-1.812l-0.159-0.243
		c-5.183-8.008-14.501-12.983-24.319-12.983c-15.503,0-26.329,10.709-26.329,26.04c0,7.801,3.418,13.724,10.474,18.12l19.78,10.47
		l1.914,0.929c9.45,4.59,21.216,10.298,21.216,22.993c0,15.322-12.985,27.785-28.951,27.785c-12.079,0-21.798-6.725-27.365-18.936
		l-0.135-0.293l-2.86,1.295l0.122,0.289c5.36,12.88,16.557,20.568,29.945,20.568c17.672,0,32.604-13.794,32.604-30.122
		C428.682,191.531,425.099,185.273,417.039,180.159"/>
	<path clip-path="url(#SVGID_2_)" fill="#C9252C" d="M396.078,231.705c-13.854,0-25.431-7.944-30.976-21.254l-0.54-1.287l4.859-2.2
		l0.598,1.301c5.377,11.796,14.736,18.289,26.351,18.289c15.35,0,27.837-11.965,27.837-26.672c0-11.996-11.414-17.537-20.587-21.989
		l-1.915-0.93l-19.815-10.487c-7.467-4.651-11.067-10.887-11.067-19.105c0-15.989,11.288-27.156,27.445-27.156
		c10.191,0,19.867,5.168,25.26,13.492l0.696,1.078l-3.896,3.203l-0.892-1.253c-5.425-7.539-12.695-11.365-21.606-11.365
		c-12.012,0-21.42,9.538-21.42,21.709c0,11.607,10.752,16.706,19.394,20.803l21.748,11.288c8.497,5.386,12.247,11.938,12.247,21.3
		C429.799,217.4,414.356,231.705,396.078,231.705 M367.465,210.301c5.296,12.021,15.938,19.173,28.613,19.173
		c17.067,0,31.488-13.281,31.488-29.006c0-8.51-3.43-14.485-11.123-19.368l-21.632-11.221c-9.173-4.351-20.633-9.782-20.633-22.802
		c0-13.423,10.39-23.937,23.651-23.937c9.396,0,17.102,3.906,22.917,11.616l0.514-0.423c-5.051-7.351-13.794-11.889-22.993-11.889
		c-14.845,0-25.214,10.25-25.214,24.927c0,7.383,3.255,13,9.948,17.171l21.591,11.346c9.734,4.724,21.845,10.604,21.845,23.994
		c0,15.937-13.486,28.902-30.067,28.902c-12.303,0-22.235-6.691-28.047-18.875L367.465,210.301z"/>
	<path clip-path="url(#SVGID_2_)" fill="#C9252C" d="M450.907,173.988h14.511c6.901,0,14.16-0.783,20.483-6.454
		c5.062-4.607,7.739-10.774,7.739-17.832c0-7.881-3.375-15.075-9.023-19.24c-6.23-4.753-14.067-4.753-20.366-4.753h-13.344V173.988z
		 M450.907,229.13h-3.36V122.789h17.578c8.202,0,16.108,0.456,22.603,5.986c5.977,5.069,9.273,12.606,9.273,21.219
		c0,8.156-3.282,15.958-8.565,20.365c-6.68,5.807-15.968,6.551-23.311,6.551h-14.218V229.13z"/>
	<path clip-path="url(#SVGID_2_)" fill="#C9252C" d="M452.022,230.246h-5.59v-108.57h18.693c8.423,0,16.546,0.478,23.322,6.251
		c6.233,5.282,9.666,13.118,9.666,22.069c0,8.479-3.435,16.611-8.965,21.221c-6.941,6.034-16.486,6.809-24.023,6.809h-13.104
		V230.246z M448.662,228.016h1.13v-52.219h15.334c7.147,0,16.177-0.715,22.576-6.279c5.053-4.212,8.181-11.688,8.181-19.522
		c0-8.282-3.151-15.517-8.877-20.37c-6.203-5.282-13.89-5.72-21.88-5.72h-16.464V228.016z M465.417,175.105h-15.625v-50.51h14.46
		c6.468,0,14.513,0,21.041,4.983c5.92,4.361,9.462,11.891,9.462,20.126c0,7.376-2.802,13.828-8.102,18.656
		C480.041,174.289,472.54,175.105,465.417,175.105 M452.022,172.875h13.395c6.678,0,13.693-0.747,19.74-6.171
		c4.817-4.387,7.37-10.266,7.37-16.999c0-7.532-3.207-14.388-8.57-18.343c-5.945-4.538-13.574-4.538-19.705-4.538h-12.229V172.875z"
		/>
	<polygon clip-path="url(#SVGID_2_)" fill="#C9252C" points="294.795,222.243 254.95,123.572 233.082,228.74 233,229.132 
		235.988,229.132 255.733,133.143 257.726,137.91 294.502,228.998 294.801,229.741 332.018,137.905 333.872,133.179 
		353.701,228.874 353.754,229.132 356.74,229.132 335.005,124.603 334.786,123.558 	"/>
	<path clip-path="url(#SVGID_2_)" fill="#C9252C" d="M294.804,232.701l-1.338-3.28L256.1,136.906l-19.205,93.34h-5.252l0.345-1.722
		l22.622-108.781l40.185,99.527l40.337-99.53l22.979,110.505h-5.253l-0.193-0.873l-19.121-92.294l-0.485,1.235L294.804,232.701z
		 M354.66,228.016h0.712l-20.93-100.638l-39.649,97.839l-39.498-97.813l-20.923,100.612h0.706l20.292-98.639l3.385,8.102
		l36.045,89.291l39.404-97.481L354.66,228.016z"/>
</g>
<polygon fill="#0B271D" points="231.855,265.562 235.009,265.562 243.04,287.016 250.937,265.562 254.089,265.562 254.089,289.931 
	251.851,289.931 251.851,268.679 244.089,289.931 242.023,289.931 234.094,268.679 234.094,289.931 231.855,289.931 "/>
<path fill="#0B271D" d="M268.594,265.561h2.677l9.252,24.37h-2.339l-2.746-7.456h-10.979l-2.779,7.456h-2.339L268.594,265.561z
	 M274.659,280.474l-4.742-12.539l-4.714,12.539H274.659z"/>
<polygon fill="#0B271D" points="285.807,265.562 288.281,265.562 301.976,286.475 301.976,265.562 304.21,265.562 304.21,289.931 
	301.737,289.931 288.045,269.02 288.045,289.931 285.807,289.931 "/>
<g>
	<defs>
		<rect id="SVGID_3_" x="-220" y="-497.181" width="894" height="1264.361"/>
	</defs>
	<clipPath id="SVGID_4_">
		<use xlink:href="#SVGID_3_"  overflow="visible"/>
	</clipPath>
	<path clip-path="url(#SVGID_4_)" fill="#0B271D" d="M332.339,281.966c-0.373,5.389-3.966,8.642-9.728,8.642
		c-6.474,0-10.607-4.777-10.607-12.912c0-8.067,4.204-12.778,10.675-12.778c5.559,0,9.184,3.084,9.422,7.763h-2.203
		c-0.372-3.56-3.117-5.763-7.219-5.763c-5.185,0-8.371,3.799-8.371,10.745c0,7.015,3.287,10.948,8.438,10.948
		c4.339,0,7.086-2.477,7.389-6.645H332.339z"/>
	<polygon clip-path="url(#SVGID_4_)" fill="#0B271D" points="340.029,265.562 342.268,265.562 342.268,276.137 356.23,276.137 
		356.23,265.562 358.468,265.562 358.468,289.931 356.23,289.931 356.23,278.137 342.268,278.137 342.268,289.931 340.029,289.931 	
		"/>
	<polygon clip-path="url(#SVGID_4_)" fill="#0B271D" points="367.277,265.562 383.238,265.562 383.238,267.562 369.513,267.562 
		369.513,276.408 382.053,276.408 382.053,278.409 369.513,278.409 369.513,287.934 383.646,287.934 383.646,289.931 
		367.277,289.931 	"/>
	<path clip-path="url(#SVGID_4_)" fill="#0B271D" d="M391.609,282.543c0,3.831,2.475,6.067,6.812,6.067
		c3.863,0,6.066-1.863,6.066-4.814c0-3.154-1.694-4.134-5.659-5.15l-2.306-0.578c-4.474-1.149-6.642-2.642-6.642-6.609
		c0-3.861,3.051-6.54,7.998-6.54c5.117,0,8.134,2.746,8.201,7.423h-2.304c-0.033-3.491-2.203-5.423-6-5.423
		c-3.592,0-5.592,1.694-5.592,4.609c0,2.304,1.255,3.457,4.101,4.167l2.848,0.714c5.289,1.321,7.659,3.116,7.659,7.15
		c0,4.337-3.186,7.049-8.404,7.049c-5.83,0-9.085-2.845-9.085-7.896v-0.168H391.609z"/>
	<polygon clip-path="url(#SVGID_4_)" fill="#0B271D" points="418.923,267.562 411.333,267.562 411.333,265.562 428.753,265.562 
		428.753,267.562 421.161,267.562 421.161,289.931 418.923,289.931 	"/>
	<polygon clip-path="url(#SVGID_4_)" fill="#0B271D" points="435.158,265.562 451.12,265.562 451.12,267.562 437.393,267.562 
		437.393,276.408 449.934,276.408 449.934,278.409 437.393,278.409 437.393,287.934 451.527,287.934 451.527,289.931 
		435.158,289.931 	"/>
	<path clip-path="url(#SVGID_4_)" fill="#0B271D" d="M459.051,265.562h7.589h0.544c2.576,0,4.61,0.035,6.303,0.984
		c1.898,1.084,2.983,3.05,2.983,5.49c0,3.015-1.39,5.119-3.931,6c2.541,0.845,2.78,2.541,3.049,5.657l0.306,3.661
		c0.102,1.188,0.374,1.897,0.781,2.237v0.339H474.2c-0.271-0.507-0.44-1.32-0.543-2.507l-0.272-3.219
		c-0.304-4.171-0.947-5.188-4.981-5.188h-7.117v10.913h-2.235V265.562z M467.761,277.017c4.405,0,6.405-1.354,6.405-4.913
		c0-1.594-0.68-2.914-1.829-3.693c-1.187-0.813-2.713-0.848-4.713-0.848h-0.949h-5.389v9.454H467.761z"/>
	<path clip-path="url(#SVGID_4_)" fill="#0B271D" d="M233.009,319.186c0,3.831,2.476,6.068,6.813,6.068
		c3.863,0,6.066-1.863,6.066-4.814c0-3.152-1.696-4.135-5.661-5.151l-2.306-0.578c-4.472-1.149-6.64-2.642-6.64-6.608
		c0-3.862,3.05-6.54,7.998-6.54c5.117,0,8.133,2.745,8.202,7.422h-2.306c-0.031-3.489-2.203-5.421-5.998-5.421
		c-3.594,0-5.593,1.693-5.593,4.609c0,2.304,1.254,3.457,4.103,4.167l2.844,0.712c5.291,1.323,7.663,3.118,7.663,7.15
		c0,4.338-3.188,7.05-8.407,7.05c-5.828,0-9.083-2.846-9.083-7.896v-0.169H233.009z"/>
	<path clip-path="url(#SVGID_4_)" fill="#0B271D" d="M273.744,318.61c-0.371,5.389-3.966,8.641-9.727,8.641
		c-6.473,0-10.609-4.779-10.609-12.912c0-8.068,4.204-12.779,10.677-12.779c5.559,0,9.184,3.086,9.421,7.761h-2.203
		c-0.372-3.557-3.118-5.76-7.218-5.76c-5.186,0-8.372,3.797-8.372,10.744c0,7.017,3.286,10.949,8.44,10.949
		c4.337,0,7.082-2.476,7.388-6.644H273.744z"/>
	<rect x="280.926" y="302.204" clip-path="url(#SVGID_4_)" fill="#0B271D" width="2.239" height="24.371"/>
	<polygon clip-path="url(#SVGID_4_)" fill="#0B271D" points="290.823,302.205 306.784,302.205 306.784,304.206 293.059,304.206 
		293.059,313.051 305.599,313.051 305.599,315.052 293.059,315.052 293.059,324.575 307.192,324.575 307.192,326.575 
		290.823,326.575 	"/>
	<polygon clip-path="url(#SVGID_4_)" fill="#0B271D" points="313.359,302.205 315.833,302.205 329.525,323.118 329.525,302.205 
		331.764,302.205 331.764,326.575 329.288,326.575 315.596,305.664 315.596,326.575 313.359,326.575 	"/>
	<path clip-path="url(#SVGID_4_)" fill="#0B271D" d="M359.212,318.61c-0.374,5.389-3.966,8.641-9.727,8.641
		c-6.475,0-10.61-4.779-10.61-12.912c0-8.068,4.204-12.779,10.678-12.779c5.559,0,9.184,3.086,9.421,7.761h-2.202
		c-0.374-3.557-3.118-5.76-7.219-5.76c-5.187,0-8.37,3.797-8.37,10.744c0,7.017,3.285,10.949,8.438,10.949
		c4.337,0,7.084-2.476,7.389-6.644H359.212z"/>
	<polygon clip-path="url(#SVGID_4_)" fill="#0B271D" points="365.549,302.205 381.51,302.205 381.51,304.206 367.783,304.206 
		367.783,313.051 380.324,313.051 380.324,315.052 367.783,315.052 367.783,324.575 381.917,324.575 381.917,326.575 
		365.549,326.575 	"/>
	<path clip-path="url(#SVGID_4_)" fill="#0B271D" d="M231.891,338.85h8.506c5.321,0,8,2.306,8,6.847
		c0,4.712-2.984,6.948-9.084,6.948h-5.185v10.575h-2.236V338.85z M239.346,350.645c4.577,0,6.744-1.321,6.744-4.981
		c0-3.319-1.833-4.812-5.795-4.812h-6.168v9.794H239.346z"/>
	<path clip-path="url(#SVGID_4_)" fill="#0B271D" d="M259.613,338.85h2.675l9.254,24.37h-2.338l-2.747-7.455h-10.981l-2.777,7.455
		h-2.34L259.613,338.85z M265.679,353.763l-4.744-12.54l-4.711,12.54H265.679z"/>
	<path clip-path="url(#SVGID_4_)" fill="#0B271D" d="M277.504,338.852h7.59h0.544c2.575,0,4.609,0.031,6.303,0.982
		c1.898,1.084,2.984,3.049,2.984,5.49c0,3.015-1.392,5.119-3.934,5.999c2.542,0.847,2.78,2.541,3.053,5.657l0.304,3.664
		c0.101,1.187,0.372,1.896,0.781,2.236v0.339h-2.475c-0.271-0.51-0.441-1.321-0.544-2.508l-0.27-3.22
		c-0.308-4.169-0.949-5.187-4.983-5.187h-7.116v10.914h-2.237V338.852z M286.214,350.305c4.405,0,6.406-1.353,6.406-4.913
		c0-1.593-0.68-2.915-1.831-3.693c-1.186-0.815-2.711-0.848-4.712-0.848h-0.948h-5.388v9.454H286.214z"/>
	<polygon clip-path="url(#SVGID_4_)" fill="#0B271D" points="308.004,340.851 300.412,340.851 300.412,338.852 317.833,338.852 
		317.833,340.851 310.241,340.851 310.241,363.22 308.004,363.22 	"/>
	<polygon clip-path="url(#SVGID_4_)" fill="#0B271D" points="324.237,338.852 326.711,338.852 340.403,359.764 340.403,338.852 
		342.64,338.852 342.64,363.22 340.165,363.22 326.474,342.309 326.474,363.22 324.237,363.22 	"/>
	<polygon clip-path="url(#SVGID_4_)" fill="#0B271D" points="350.128,338.852 366.09,338.852 366.09,340.851 352.364,340.851 
		352.364,349.695 364.903,349.695 364.903,351.696 352.364,351.696 352.364,361.221 366.498,361.221 366.498,363.22 350.128,363.22 
			"/>
	<path clip-path="url(#SVGID_4_)" fill="#0B271D" d="M374.021,338.852h7.591h0.542c2.575,0,4.611,0.031,6.304,0.982
		c1.898,1.084,2.984,3.049,2.984,5.49c0,3.015-1.391,5.119-3.933,5.999c2.542,0.847,2.779,2.541,3.051,5.657l0.303,3.664
		c0.104,1.187,0.375,1.896,0.783,2.236v0.339h-2.476c-0.272-0.51-0.44-1.321-0.542-2.508l-0.272-3.22
		c-0.304-4.169-0.949-5.187-4.982-5.187h-7.117v10.914h-2.235V338.852z M382.729,350.305c4.406,0,6.405-1.353,6.405-4.913
		c0-1.593-0.678-2.915-1.828-3.693c-1.188-0.815-2.711-0.848-4.712-0.848h-0.95h-5.389v9.454H382.729z"/>
	<path clip-path="url(#SVGID_4_)" fill="#0B271D" d="M399.776,355.83c0,3.832,2.472,6.068,6.812,6.068
		c3.864,0,6.067-1.865,6.067-4.813c0-3.153-1.695-4.134-5.66-5.152l-2.307-0.576c-4.472-1.151-6.642-2.642-6.642-6.608
		c0-3.865,3.052-6.543,8-6.543c5.117,0,8.134,2.747,8.201,7.424h-2.305c-0.034-3.491-2.203-5.423-5.999-5.423
		c-3.593,0-5.592,1.694-5.592,4.61c0,2.303,1.254,3.458,4.099,4.166l2.849,0.713c5.287,1.323,7.66,3.116,7.66,7.152
		c0,4.337-3.187,7.05-8.405,7.05c-5.831,0-9.085-2.846-9.085-7.898v-0.169H399.776z"/>
	<polygon clip-path="url(#SVGID_4_)" fill="#0B271D" points="422.583,338.852 424.818,338.852 424.818,349.424 438.783,349.424 
		438.783,338.852 441.02,338.852 441.02,363.22 438.783,363.22 438.783,351.424 424.818,351.424 424.818,363.22 422.583,363.22 	"/>
	<rect x="448.643" y="338.852" clip-path="url(#SVGID_4_)" fill="#0B271D" width="2.239" height="24.368"/>
	<path clip-path="url(#SVGID_4_)" fill="#0B271D" d="M459.217,338.85h8.506c5.319,0,7.999,2.306,7.999,6.847
		c0,4.712-2.983,6.948-9.084,6.948h-5.186v10.575h-2.235V338.85z M466.673,350.645c4.575,0,6.744-1.321,6.744-4.981
		c0-3.319-1.832-4.812-5.796-4.812h-6.169v9.794H466.673z"/>
	<path clip-path="url(#SVGID_4_)" fill="#0B271D" d="M482.837,355.83c0,3.832,2.472,6.068,6.811,6.068
		c3.865,0,6.067-1.865,6.067-4.813c0-3.153-1.694-4.134-5.658-5.152l-2.308-0.576c-4.472-1.151-6.64-2.642-6.64-6.608
		c0-3.865,3.049-6.543,7.997-6.543c5.118,0,8.135,2.747,8.201,7.424h-2.304c-0.033-3.491-2.202-5.423-5.999-5.423
		c-3.593,0-5.593,1.694-5.593,4.61c0,2.303,1.253,3.458,4.1,4.166l2.85,0.713c5.286,1.323,7.659,3.116,7.659,7.152
		c0,4.337-3.187,7.05-8.405,7.05c-5.831,0-9.084-2.846-9.084-7.898v-0.169H482.837z"/>
</g>
</svg>
